<?xml version="1.0" encoding="UTF-8"?>
<!DOCTYPE svg PUBLIC "-//W3C//DTD SVG 1.1//EN" "http://www.w3.org/Graphics/SVG/1.1/DTD/svg11.dtd">
<svg xmlns="http://www.w3.org/2000/svg" version="1.1" width="717px" height="623px" style="shape-rendering:geometricPrecision; text-rendering:geometricPrecision; image-rendering:optimizeQuality; fill-rule:evenodd; clip-rule:evenodd" xmlns:xlink="http://www.w3.org/1999/xlink">
<g><path style="opacity:0.996" fill="#000000" d="M 293.5,-0.5 C 311.5,-0.5 329.5,-0.5 347.5,-0.5C 384.444,2.15143 420.111,10.6514 454.5,25C 537.031,64.835 565.198,129.002 539,217.5C 523.992,260.525 502.992,300.192 476,336.5C 464.615,350.884 453.615,365.55 443,380.5C 428.024,410.006 421.524,441.339 423.5,474.5C 425.091,494.22 424.591,513.886 422,533.5C 418.797,557.364 405.963,573.531 383.5,582C 362.531,588.59 341.031,591.757 319,591.5C 220.023,590.162 137.023,553.495 70,481.5C 29.5565,434.602 6.05652,380.268 -0.5,318.5C -0.5,303.167 -0.5,287.833 -0.5,272.5C 12.0264,173.594 60.693,98.0936 145.5,46C 191.49,19.5013 240.824,4.00125 293.5,-0.5 Z"/></g>
<g><path style="opacity:0.993" fill="#000000" d="M 716.5,334.5 C 716.5,338.5 716.5,342.5 716.5,346.5C 714.042,354.009 710.875,361.342 707,368.5C 695.75,385.999 684.75,403.665 674,421.5C 661.25,444.082 652.25,468.082 647,493.5C 642.451,518.126 638.118,542.793 634,567.5C 632.009,577.805 629.009,587.805 625,597.5C 619.011,609.998 609.511,618.331 596.5,622.5C 589.167,622.5 581.833,622.5 574.5,622.5C 515.603,609.475 473.103,575.809 447,521.5C 421.514,448.646 437.681,386.813 495.5,336C 549.566,295.793 609.066,285.293 674,304.5C 688.106,308.05 700.44,314.717 711,324.5C 713.13,327.767 714.963,331.1 716.5,334.5 Z"/></g>
</svg>
